<svg width="24" height="24" viewBox="0 0 24 24" fill="none" xmlns="http://www.w3.org/2000/svg">
<path d="M18.0011 11.1428V8.57141C18.0011 6.98011 17.369 5.45399 16.2438 4.32877C15.1185 3.20355 13.5924 2.57141 12.0011 2.57141C10.4098 2.57141 8.88369 3.20355 7.75848 4.32877C6.63326 5.45399 6.00112 6.98011 6.00112 8.57141V11.1428C6.00112 13.9714 3.42969 14.6571 3.42969 16.2857C3.42969 17.7428 6.77254 18.8571 12.0011 18.8571C17.2297 18.8571 20.5725 17.7428 20.5725 16.2857C20.5725 14.6571 18.0011 13.9714 18.0011 11.1428Z" stroke="#9095A0" stroke-width="2.05714" stroke-miterlimit="10" stroke-linecap="square"/>
<path d="M12.0018 20.5714C11.1353 20.5714 10.321 20.5423 9.55469 20.4857C9.71805 21.0068 10.0435 21.4622 10.4837 21.7855C10.9238 22.1088 11.4557 22.2831 12.0018 22.2831C12.548 22.2831 13.0798 22.1088 13.52 21.7855C13.9601 21.4622 14.2856 21.0068 14.449 20.4857C13.6827 20.5423 12.8684 20.5714 12.0018 20.5714Z" fill="#9095A0"/>
</svg>
