<svg width="71" height="70" viewBox="0 0 71 70" fill="none" xmlns="http://www.w3.org/2000/svg">
<g filter="url(#filter0_dd_1_3509)">
<rect x="17.25" y="9" width="36" height="36" rx="18" fill="#7AA874"/>
<path d="M43.5313 24.905C43.6237 24.8405 43.6987 24.754 43.7495 24.6535C43.8004 24.5529 43.8255 24.4413 43.8228 24.3286V22C43.8228 21.4317 43.597 20.8867 43.1951 20.4848C42.7933 20.0829 42.2482 19.8572 41.6799 19.8572L28.8228 19.8572C28.2544 19.8572 27.7094 20.0829 27.3075 20.4848C26.9057 20.8867 26.6799 21.4317 26.6799 22V24.3286C26.6771 24.4413 26.7023 24.5529 26.7531 24.6535C26.804 24.754 26.8789 24.8405 26.9713 24.905C27.3203 25.132 27.6071 25.4424 27.8057 25.8083C28.0042 26.1741 28.1083 26.5838 28.1085 27C28.1083 27.4163 28.0042 27.8259 27.8057 28.1918C27.6071 28.5576 27.3203 28.8681 26.9713 29.095C26.8789 29.1596 26.804 29.246 26.7531 29.3466C26.7023 29.4472 26.6771 29.5588 26.6799 29.6715V32C26.6799 32.5684 26.9057 33.1134 27.3075 33.5153C27.7094 33.9171 28.2544 34.1429 28.8228 34.1429H41.6799C42.2482 34.1429 42.7933 33.9171 43.1951 33.5153C43.597 33.1134 43.8228 32.5684 43.8228 32V29.6715C43.8255 29.5588 43.8004 29.4472 43.7495 29.3466C43.6987 29.246 43.6237 29.1596 43.5313 29.095C43.1826 28.868 42.8961 28.5574 42.6977 28.1916C42.4994 27.8257 42.3955 27.4162 42.3955 27C42.3955 26.5839 42.4994 26.1743 42.6977 25.8085C42.8961 25.4427 43.1826 25.1321 43.5313 24.905ZM39.537 29.5C39.537 29.5948 39.4994 29.6856 39.4324 29.7526C39.3655 29.8196 39.2746 29.8572 39.1799 29.8572L31.3228 29.8572C31.228 29.8572 31.1372 29.8196 31.0702 29.7526C31.0032 29.6856 30.9656 29.5948 30.9656 29.5L30.9656 24.5C30.9656 24.4053 31.0032 24.3145 31.0702 24.2475C31.1372 24.1805 31.228 24.1429 31.3228 24.1429L39.1799 24.1429C39.2746 24.1429 39.3655 24.1805 39.4324 24.2475C39.4994 24.3145 39.537 24.4053 39.537 24.5V29.5Z" fill="white"/>
</g>
<defs>
<filter id="filter0_dd_1_3509" x="0.25" y="0" width="70" height="70" filterUnits="userSpaceOnUse" color-interpolation-filters="sRGB">
<feFlood flood-opacity="0" result="BackgroundImageFix"/>
<feColorMatrix in="SourceAlpha" type="matrix" values="0 0 0 0 0 0 0 0 0 0 0 0 0 0 0 0 0 0 127 0" result="hardAlpha"/>
<feOffset dy="8"/>
<feGaussianBlur stdDeviation="8.5"/>
<feColorMatrix type="matrix" values="0 0 0 0 0.478431 0 0 0 0 0.658824 0 0 0 0 0.454902 0 0 0 0.15 0"/>
<feBlend mode="normal" in2="BackgroundImageFix" result="effect1_dropShadow_1_3509"/>
<feColorMatrix in="SourceAlpha" type="matrix" values="0 0 0 0 0 0 0 0 0 0 0 0 0 0 0 0 0 0 127 0" result="hardAlpha"/>
<feOffset/>
<feGaussianBlur stdDeviation="1"/>
<feColorMatrix type="matrix" values="0 0 0 0 0.478431 0 0 0 0 0.658824 0 0 0 0 0.454902 0 0 0 0.12 0"/>
<feBlend mode="normal" in2="effect1_dropShadow_1_3509" result="effect2_dropShadow_1_3509"/>
<feBlend mode="normal" in="SourceGraphic" in2="effect2_dropShadow_1_3509" result="shape"/>
</filter>
</defs>
</svg>
