<svg width="40" height="40" viewBox="0 0 40 40" fill="none" xmlns="http://www.w3.org/2000/svg">
<g filter="url(#filter0_dd_1_3515)">
<rect x="2" y="2" width="36" height="36" rx="18" fill="#637BF2"/>
<path d="M28.1731 18.7421C27.0738 17.1871 24.076 13.5714 19.9988 13.5714C15.9217 13.5714 12.9274 17.1871 11.8238 18.7428C11.5648 19.1109 11.4258 19.5499 11.4258 20C11.4258 20.45 11.5648 20.8891 11.8238 21.2571C12.9274 22.8128 15.9217 26.4286 19.9988 26.4286C24.076 26.4286 27.0738 22.8128 28.1738 21.2571C28.4329 20.8889 28.5719 20.4497 28.5717 19.9995C28.5716 19.5493 28.4324 19.1102 28.1731 18.7421ZM19.9988 23.5714C19.2925 23.5714 18.602 23.362 18.0146 22.9695C17.4273 22.5771 16.9696 22.0193 16.6992 21.3667C16.4289 20.7141 16.3582 19.996 16.496 19.3032C16.6338 18.6104 16.974 17.9741 17.4734 17.4746C17.9729 16.9751 18.6093 16.635 19.3021 16.4972C19.9949 16.3594 20.7129 16.4301 21.3655 16.7004C22.0181 16.9707 22.5759 17.4285 22.9683 18.0158C23.3608 18.6031 23.5702 19.2936 23.5702 20C23.5702 20.9472 23.194 21.8556 22.5242 22.5254C21.8544 23.1951 20.946 23.5714 19.9988 23.5714Z" fill="white"/>
</g>
<defs>
<filter id="filter0_dd_1_3515" x="0" y="0" width="40" height="40" filterUnits="userSpaceOnUse" color-interpolation-filters="sRGB">
<feFlood flood-opacity="0" result="BackgroundImageFix"/>
<feColorMatrix in="SourceAlpha" type="matrix" values="0 0 0 0 0 0 0 0 0 0 0 0 0 0 0 0 0 0 127 0" result="hardAlpha"/>
<feOffset/>
<feGaussianBlur stdDeviation="0.5"/>
<feColorMatrix type="matrix" values="0 0 0 0 0.388235 0 0 0 0 0.482353 0 0 0 0 0.94902 0 0 0 0.07 0"/>
<feBlend mode="normal" in2="BackgroundImageFix" result="effect1_dropShadow_1_3515"/>
<feColorMatrix in="SourceAlpha" type="matrix" values="0 0 0 0 0 0 0 0 0 0 0 0 0 0 0 0 0 0 127 0" result="hardAlpha"/>
<feOffset/>
<feGaussianBlur stdDeviation="1"/>
<feColorMatrix type="matrix" values="0 0 0 0 0.388235 0 0 0 0 0.482353 0 0 0 0 0.94902 0 0 0 0.12 0"/>
<feBlend mode="normal" in2="effect1_dropShadow_1_3515" result="effect2_dropShadow_1_3515"/>
<feBlend mode="normal" in="SourceGraphic" in2="effect2_dropShadow_1_3515" result="shape"/>
</filter>
</defs>
</svg>
