<svg width="41" height="40" viewBox="0 0 41 40" fill="none" xmlns="http://www.w3.org/2000/svg">
<g filter="url(#filter0_dd_1_3521)">
<rect x="2.25" y="2" width="36" height="36" rx="18" fill="#EBAE11"/>
<path d="M25.2511 21.4286C24.1083 21.4286 23.1083 21.9286 22.4654 22.7857L18.6797 20.9286C18.7511 20.5714 18.8225 20.2857 18.8225 20C18.8225 19.7143 18.7511 19.3572 18.6797 19.0714L22.4654 17.2143C23.1083 18 24.1083 18.5714 25.2511 18.5714C27.2511 18.5714 28.8225 17 28.8225 15C28.8225 13 27.2511 11.4286 25.2511 11.4286C23.2511 11.4286 21.6797 13 21.6797 15C21.6797 15.2857 21.7511 15.6429 21.8225 15.9286L18.0368 17.7857C17.394 17 16.394 16.4286 15.2511 16.4286C13.2511 16.4286 11.6797 18 11.6797 20C11.6797 22 13.2511 23.5714 15.2511 23.5714C16.394 23.5714 17.394 23 18.0368 22.1429L21.8225 24C21.7511 24.3572 21.6797 24.6429 21.6797 25C21.6797 27 23.2511 28.5714 25.2511 28.5714C27.2511 28.5714 28.8225 27 28.8225 25C28.8225 23 27.2511 21.4286 25.2511 21.4286Z" fill="white"/>
</g>
<defs>
<filter id="filter0_dd_1_3521" x="0.25" y="0" width="40" height="40" filterUnits="userSpaceOnUse" color-interpolation-filters="sRGB">
<feFlood flood-opacity="0" result="BackgroundImageFix"/>
<feColorMatrix in="SourceAlpha" type="matrix" values="0 0 0 0 0 0 0 0 0 0 0 0 0 0 0 0 0 0 127 0" result="hardAlpha"/>
<feOffset/>
<feGaussianBlur stdDeviation="0.5"/>
<feColorMatrix type="matrix" values="0 0 0 0 0.921569 0 0 0 0 0.682353 0 0 0 0 0.0666667 0 0 0 0.07 0"/>
<feBlend mode="normal" in2="BackgroundImageFix" result="effect1_dropShadow_1_3521"/>
<feColorMatrix in="SourceAlpha" type="matrix" values="0 0 0 0 0 0 0 0 0 0 0 0 0 0 0 0 0 0 127 0" result="hardAlpha"/>
<feOffset/>
<feGaussianBlur stdDeviation="1"/>
<feColorMatrix type="matrix" values="0 0 0 0 0.921569 0 0 0 0 0.682353 0 0 0 0 0.0666667 0 0 0 0.12 0"/>
<feBlend mode="normal" in2="effect1_dropShadow_1_3521" result="effect2_dropShadow_1_3521"/>
<feBlend mode="normal" in="SourceGraphic" in2="effect2_dropShadow_1_3521" result="shape"/>
</filter>
</defs>
</svg>
