<svg width="17" height="16" viewBox="0 0 17 16" fill="none" xmlns="http://www.w3.org/2000/svg">
<path d="M14.9144 3.09564C14.8375 2.91784 14.71 2.76658 14.5477 2.66068C14.3855 2.55477 14.1957 2.49891 14.0019 2.50002L3.00194 2.50002C2.80839 2.5004 2.61912 2.55694 2.45708 2.66277C2.29503 2.76861 2.16719 2.91919 2.08904 3.09626C2.0109 3.27332 1.98581 3.46926 2.01684 3.6603C2.04786 3.85134 2.13365 4.02928 2.26381 4.17252L2.26881 4.17814L6.50194 8.69814L6.50194 13.5C6.50189 13.681 6.55097 13.8586 6.64393 14.0139C6.7369 14.1692 6.87026 14.2963 7.0298 14.3818C7.18935 14.4672 7.36909 14.5078 7.54987 14.4991C7.73065 14.4904 7.90568 14.4329 8.05631 14.3325L10.0563 12.9988C10.1934 12.9074 10.3058 12.7837 10.3836 12.6384C10.4613 12.4932 10.502 12.331 10.5019 12.1663L10.5019 8.69814L14.7357 4.17814L14.7407 4.17252C14.8722 4.02993 14.9588 3.85176 14.9897 3.66025C15.0206 3.46873 14.9945 3.27236 14.9144 3.09564ZM9.77319 8.01752C9.59949 8.20163 9.50249 8.44502 9.50194 8.69814V12.1663L7.50194 13.5L7.50194 8.69814C7.50252 8.44411 7.40592 8.19949 7.23194 8.01439L3.00194 3.50002L14.0019 3.50002L9.77319 8.01752Z" fill="#565E6C"/>
</svg>
