<svg width="24" height="24" viewBox="0 0 24 24" fill="none" xmlns="http://www.w3.org/2000/svg">
<path d="M21.4184 8.16C21.4184 8.16 21.2384 6.84 20.6384 6.24C19.9184 5.46 19.0784 5.46 18.7184 5.4C16.0184 5.22 11.9984 5.22 11.9984 5.22C11.9984 5.22 7.97844 5.22 5.27844 5.4C4.91844 5.46 4.07844 5.46 3.35844 6.24C2.75844 6.84 2.57844 8.16 2.57844 8.16C2.57844 8.16 2.39844 9.72 2.39844 11.28L2.39844 12.72C2.39844 14.28 2.57844 15.84 2.57844 15.84C2.57844 15.84 2.75844 17.16 3.35844 17.76C4.07844 18.54 5.03844 18.48 5.45844 18.6C7.01844 18.72 11.9984 18.78 11.9984 18.78C11.9984 18.78 16.0184 18.78 18.7184 18.6C19.0784 18.54 19.9184 18.54 20.6384 17.76C21.2384 17.16 21.4184 15.84 21.4184 15.84C21.4184 15.84 21.5984 14.28 21.5984 12.72L21.5984 11.28C21.5984 9.72 21.4184 8.16 21.4184 8.16ZM10.0184 14.52L10.0184 9.12L15.1784 11.82L10.0184 14.52Z" fill="#E82E2E"/>
</svg>
