<svg width="24" height="24" viewBox="0 0 24 24" fill="none" xmlns="http://www.w3.org/2000/svg">
<path d="M21.5984 12C21.5982 10.1655 21.0722 8.36941 20.0829 6.82448C19.0936 5.27955 17.6823 4.05045 16.0161 3.28267C14.35 2.5149 12.4987 2.2406 10.6815 2.49227C8.86432 2.74393 7.15727 3.511 5.76248 4.70269C4.36769 5.89437 3.34355 7.46075 2.81132 9.21639C2.27909 10.972 2.26105 12.8434 2.75933 14.609C3.25762 16.3746 4.25137 17.9604 5.62293 19.1788C6.99449 20.3971 8.68643 21.197 10.4984 21.4836L10.4984 14.775H8.06124V12H10.4984V9.885C10.4984 7.479 11.9318 6.15 14.1242 6.15C14.8442 6.15998 15.5626 6.22255 16.2734 6.3372V8.7H15.0626C14.8563 8.6726 14.6465 8.69197 14.4486 8.7567C14.2508 8.82142 14.0701 8.92983 13.9199 9.07389C13.7696 9.21796 13.6538 9.39398 13.5808 9.58891C13.5079 9.78385 13.4797 9.9927 13.4984 10.2V12H16.1612L15.7352 14.775H13.4984L13.4984 21.4836C15.7567 21.1264 17.8133 19.9749 19.2982 18.2363C20.7831 16.4978 21.5988 14.2864 21.5984 12Z" fill="#2E6FE8"/>
</svg>
