<svg width="24" height="24" viewBox="0 0 24 24" fill="none" xmlns="http://www.w3.org/2000/svg">
<path d="M12.0011 14.5714C13.4213 14.5714 14.5725 13.4202 14.5725 12C14.5725 10.5799 13.4213 9.42859 12.0011 9.42859C10.581 9.42859 9.42969 10.5799 9.42969 12C9.42969 13.4202 10.581 14.5714 12.0011 14.5714Z" stroke="#565E6C" stroke-width="2.05714" stroke-miterlimit="10" stroke-linecap="square"/>
<path d="M18.856 12C18.855 11.5062 18.801 11.0139 18.6949 10.5317L21.0211 8.77027L19.3068 5.80113L16.6128 6.9377C15.8833 6.26887 15.0174 5.76618 14.0748 5.46427L13.7131 2.57141L10.2846 2.57141L9.92285 5.46427C8.98029 5.76618 8.1144 6.26887 7.38485 6.9377L4.69085 5.80113L2.97656 8.77027L5.30285 10.5317C5.08804 11.4988 5.08804 12.5012 5.30285 13.4683L2.97656 15.2297L4.69085 18.1988L7.38485 17.0623C8.1144 17.7311 8.98029 18.2338 9.92285 18.5357L10.2846 21.4286H13.7131L14.0748 18.5357C15.0174 18.2338 15.8833 17.7311 16.6128 17.0623L19.3068 18.1988L21.0211 15.2297L18.6949 13.4683C18.801 12.986 18.855 12.4938 18.856 12Z" stroke="#565E6C" stroke-width="2.05714" stroke-miterlimit="10" stroke-linecap="square"/>
</svg>
