<svg width="29" height="28" viewBox="0 0 29 28" fill="none" xmlns="http://www.w3.org/2000/svg">
<path d="M26.0923 11.067C26.2216 10.9766 26.3265 10.8556 26.3977 10.7148C26.4689 10.574 26.5042 10.4177 26.5003 10.26V7C26.5003 6.20435 26.1842 5.44129 25.6216 4.87868C25.059 4.31607 24.2959 4 23.5003 4L5.50029 4C4.70464 4 3.94158 4.31607 3.37897 4.87868C2.81636 5.44129 2.50029 6.20435 2.50029 7L2.50029 10.26C2.49642 10.4177 2.53165 10.574 2.60284 10.7148C2.67403 10.8556 2.77897 10.9766 2.90829 11.067C3.39685 11.3847 3.79835 11.8194 4.07636 12.3315C4.35437 12.8437 4.50009 13.4172 4.50029 14C4.50009 14.5828 4.35437 15.1563 4.07636 15.6685C3.79835 16.1806 3.39685 16.6153 2.90829 16.933C2.77897 17.0234 2.67403 17.1444 2.60284 17.2852C2.53165 17.426 2.49642 17.5823 2.50029 17.74L2.50029 21C2.50029 21.7956 2.81636 22.5587 3.37897 23.1213C3.94158 23.6839 4.70464 24 5.50029 24L23.5003 24C24.2959 24 25.059 23.6839 25.6216 23.1213C26.1842 22.5587 26.5003 21.7956 26.5003 21V17.74C26.5042 17.5823 26.4689 17.426 26.3977 17.2852C26.3265 17.1444 26.2216 17.0234 26.0923 16.933C25.6041 16.6151 25.2029 16.1803 24.9252 15.6682C24.6476 15.156 24.5021 14.5826 24.5021 14C24.5021 13.4174 24.6476 12.844 24.9252 12.3318C25.2029 11.8197 25.6041 11.3849 26.0923 11.067ZM20.5003 17.5C20.5003 17.6326 20.4476 17.7598 20.3538 17.8536C20.2601 17.9473 20.1329 18 20.0003 18L9.00029 18C8.86768 18 8.7405 17.9473 8.64673 17.8536C8.55297 17.7598 8.50029 17.6326 8.50029 17.5L8.50029 10.5C8.50029 10.3674 8.55297 10.2402 8.64673 10.1464C8.7405 10.0527 8.86768 10 9.00029 10L20.0003 10C20.1329 10 20.2601 10.0527 20.3538 10.1464C20.4476 10.2402 20.5003 10.3674 20.5003 10.5L20.5003 17.5Z" fill="#7AA874"/>
</svg>
